<svg width="390" height="73" viewBox="0 0 390 73" fill="none" xmlns="http://www.w3.org/2000/svg">
<path d="M344.61 36.766C342.588 35.4325 340.361 34.4844 338.252 33.2991C336.885 32.5287 335.428 31.847 334.241 30.8692C332.22 29.2098 332.636 25.9504 334.746 24.528C337.776 22.5131 342.796 23.6389 343.331 27.7579C343.331 27.8467 343.42 27.9061 343.51 27.9061H348.086C348.204 27.9061 348.294 27.8172 348.264 27.6987C348.026 24.8539 346.926 22.4834 344.907 20.9721C342.974 19.5201 340.777 18.7497 338.428 18.7497C326.338 18.7497 325.238 31.5211 331.744 35.5512C332.487 36.0253 338.874 39.2255 341.134 40.6181C343.391 42.0108 344.104 44.5593 343.123 46.5742C342.231 48.4114 339.915 49.6856 337.598 49.5375C335.071 49.3893 333.111 48.0263 332.428 45.8927C332.309 45.5076 332.249 44.7667 332.249 44.4408C332.249 44.3518 332.16 44.2629 332.071 44.2629H327.111C327.022 44.2629 326.932 44.3518 326.932 44.4408C326.932 48.0263 327.824 50.0115 330.26 51.8193C332.547 53.5378 335.041 54.249 337.628 54.249C344.401 54.249 347.907 50.4263 348.618 46.4557C349.243 42.5738 348.086 39.0773 344.61 36.766Z" fill="#161616"/>
<path d="M129.193 19.4018H126.995H124.588C124.499 19.4018 124.439 19.461 124.41 19.5203L120.34 32.914C120.28 33.0919 120.043 33.0919 119.983 32.914L115.913 19.5203C115.884 19.4314 115.824 19.4018 115.735 19.4018H113.329H111.13H108.159C108.07 19.4018 107.981 19.4907 107.981 19.5796V53.7752C107.981 53.8639 108.07 53.9529 108.159 53.9529H113.121C113.21 53.9529 113.299 53.8639 113.299 53.7752V27.7876C113.299 27.5802 113.596 27.5507 113.655 27.7284L117.755 41.2111L118.052 42.1592C118.082 42.2482 118.141 42.2779 118.231 42.2779H122.033C122.122 42.2779 122.182 42.2184 122.211 42.1592L122.508 41.2111L126.608 27.7284C126.668 27.521 126.965 27.5802 126.965 27.7876V53.7752C126.965 53.8639 127.054 53.9529 127.143 53.9529H132.104C132.193 53.9529 132.283 53.8639 132.283 53.7752V19.5796C132.283 19.4907 132.193 19.4018 132.104 19.4018H129.193Z" fill="#161616"/>
<path d="M268.644 19.4018C268.555 19.4018 268.495 19.461 268.465 19.5203L264.397 32.914C264.338 33.0919 264.1 33.0919 264.04 32.914L259.97 19.5203C259.94 19.4314 259.881 19.4018 259.792 19.4018H252.245C252.156 19.4018 252.067 19.4907 252.067 19.5796V53.7752C252.067 53.8639 252.156 53.9529 252.245 53.9529H257.207C257.297 53.9529 257.386 53.8639 257.386 53.7752V27.7876C257.386 27.5802 257.683 27.5507 257.743 27.7284L261.841 41.2111L262.138 42.1592C262.168 42.2482 262.227 42.2779 262.316 42.2779H266.119C266.208 42.2779 266.268 42.2184 266.298 42.1592L266.595 41.2111L270.695 27.7284C270.755 27.521 271.052 27.5802 271.052 27.7876V53.7752C271.052 53.8639 271.141 53.9529 271.23 53.9529H276.19C276.28 53.9529 276.369 53.8639 276.369 53.7752V19.5796C276.369 19.4907 276.28 19.4018 276.19 19.4018H268.644Z" fill="#161616"/>
<path d="M204.652 19.4018H195.413H190.451H181.212C181.123 19.4018 181.034 19.4907 181.034 19.5796V23.8465C181.034 23.9355 181.123 24.0244 181.212 24.0244H190.273V53.7752C190.273 53.8639 190.362 53.9529 190.451 53.9529H195.413C195.502 53.9529 195.591 53.8639 195.591 53.7752V24.0244H204.652C204.741 24.0244 204.83 23.9355 204.83 23.8465V19.5796C204.83 19.4907 204.771 19.4018 204.652 19.4018Z" fill="#161616"/>
<path d="M233.916 53.9525H238.43C238.549 53.9525 238.638 53.834 238.609 53.7156L229.281 19.4015C229.251 19.3126 229.191 19.283 229.102 19.283H227.379H224.349H222.626C222.537 19.283 222.477 19.3422 222.448 19.4015L213.119 53.7156C213.09 53.834 213.179 53.9525 213.298 53.9525H217.813C217.902 53.9525 217.962 53.8933 217.992 53.834L220.695 43.8479C220.725 43.7592 220.784 43.7295 220.873 43.7295H230.856C230.945 43.7295 231.005 43.7887 231.035 43.8479L233.738 53.834C233.767 53.8933 233.856 53.9525 233.916 53.9525ZM222.061 38.8402L225.686 25.476C225.745 25.2983 225.983 25.2983 226.043 25.476L229.667 38.8402C229.697 38.9587 229.608 39.0771 229.489 39.0771H222.24C222.121 39.0771 222.032 38.9587 222.061 38.8402Z" fill="#161616"/>
<path d="M310.92 53.9525H315.435C315.553 53.9525 315.643 53.834 315.613 53.7156L306.285 19.4015C306.255 19.3126 306.196 19.283 306.107 19.283H304.385H301.355H299.63C299.541 19.283 299.482 19.3422 299.452 19.4015L290.124 53.7156C290.094 53.834 290.183 53.9525 290.302 53.9525H294.819C294.908 53.9525 294.967 53.8933 294.997 53.834L297.7 43.8479C297.73 43.7592 297.789 43.7295 297.879 43.7295H307.861C307.95 43.7295 308.009 43.7887 308.039 43.8479L310.742 53.834C310.772 53.8933 310.831 53.9525 310.92 53.9525ZM299.065 38.8402L302.69 25.476C302.75 25.2983 302.987 25.2983 303.047 25.476L306.671 38.8402C306.701 38.9587 306.612 39.0771 306.493 39.0771H299.244C299.125 39.0771 299.036 38.9587 299.065 38.8402Z" fill="#161616"/>
<path d="M152.425 48.8857V38.2774C152.425 38.1886 152.514 38.0997 152.603 38.0997H165.823C165.913 38.0997 166.002 38.0107 166.002 37.9218V33.6548C166.002 33.566 165.913 33.4771 165.823 33.4771H152.603C152.514 33.4771 152.425 33.3881 152.425 33.2992V24.2319C152.425 24.1429 152.514 24.054 152.603 24.054H167.636C167.725 24.054 167.814 23.965 167.814 23.8763V19.6092C167.814 19.5203 167.725 19.4314 167.636 19.4314H152.425H147.286C147.196 19.4314 147.107 19.5203 147.107 19.6092V24.054V33.5066V38.1294V49.0931V53.775C147.107 53.8639 147.196 53.9529 147.286 53.9529H152.425H168.26C168.349 53.9529 168.438 53.8639 168.438 53.775V49.2711C168.438 49.1821 168.349 49.0931 168.26 49.0931H152.574C152.484 49.0636 152.425 49.0042 152.425 48.8857Z" fill="#161616"/>
<path d="M389.944 53.6565L372.772 35.9661C372.713 35.9068 372.713 35.7884 372.772 35.7291L388.222 19.7277C388.341 19.6092 388.252 19.4314 388.103 19.4314H381.775C381.716 19.4314 381.686 19.461 381.656 19.4907L368.555 33.0622C368.436 33.1807 368.258 33.0917 368.258 32.9436V19.6092C368.258 19.5203 368.169 19.4314 368.08 19.4314H363.117C363.028 19.4314 362.939 19.5203 362.939 19.6092V53.8047C362.939 53.8937 363.028 53.9826 363.117 53.9826H368.08C368.169 53.9826 368.258 53.8937 368.258 53.8047V38.7517C368.258 38.6035 368.466 38.5145 368.555 38.633L383.408 53.9232C383.438 53.9529 383.497 53.9826 383.527 53.9826H389.855C389.974 53.9529 390.063 53.7455 389.944 53.6565Z" fill="#161616"/>
<path d="M74.0833 1L44.0479 23.2241L49.6332 10.1267L74.0833 1Z" fill="#E17726" stroke="#E17726" stroke-width="0.25" stroke-linecap="round" stroke-linejoin="round"/>
<path d="M4.80273 1L34.5708 23.4315L29.253 10.1267L4.80273 1Z" fill="#E27625" stroke="#E27625" stroke-width="0.25" stroke-linecap="round" stroke-linejoin="round"/>
<path d="M63.2687 52.53L55.2771 64.7385L72.3892 69.4501L77.2913 52.7969L63.2687 52.53Z" fill="#E27625" stroke="#E27625" stroke-width="0.25" stroke-linecap="round" stroke-linejoin="round"/>
<path d="M1.62354 52.7969L6.49572 69.4501L23.5782 64.7385L15.6163 52.53L1.62354 52.7969Z" fill="#E27625" stroke="#E27625" stroke-width="0.25" stroke-linecap="round" stroke-linejoin="round"/>
<path d="M22.6571 31.9063L17.9038 39.0773L34.8377 39.8478L34.2733 21.624L22.6571 31.9063Z" fill="#E27625" stroke="#E27625" stroke-width="0.25" stroke-linecap="round" stroke-linejoin="round"/>
<path d="M56.2275 31.9065L44.4334 21.4167L44.0471 39.8479L60.9809 39.0775L56.2275 31.9065Z" fill="#E27625" stroke="#E27625" stroke-width="0.25" stroke-linecap="round" stroke-linejoin="round"/>
<path d="M23.5786 64.7385L33.828 59.79L25.0047 52.9153L23.5786 64.7385Z" fill="#E27625" stroke="#E27625" stroke-width="0.25" stroke-linecap="round" stroke-linejoin="round"/>
<path d="M45.0576 59.79L55.2772 64.7385L53.8809 52.9153L45.0576 59.79Z" fill="#E27625" stroke="#E27625" stroke-width="0.25" stroke-linecap="round" stroke-linejoin="round"/>
<path d="M55.2772 64.7389L45.0576 59.7905L45.8893 66.428L45.8001 69.2431L55.2772 64.7389Z" fill="#D5BFB2" stroke="#D5BFB2" stroke-width="0.25" stroke-linecap="round" stroke-linejoin="round"/>
<path d="M23.5786 64.7389L33.0854 69.2431L33.026 66.428L33.828 59.7905L23.5786 64.7389Z" fill="#D5BFB2" stroke="#D5BFB2" stroke-width="0.25" stroke-linecap="round" stroke-linejoin="round"/>
<path d="M33.2633 48.5299L24.7666 46.041L30.7677 43.2851L33.2633 48.5299Z" fill="#233447" stroke="#233447" stroke-width="0.25" stroke-linecap="round" stroke-linejoin="round"/>
<path d="M45.6221 48.5299L48.1177 43.2851L54.1485 46.041L45.6221 48.5299Z" fill="#233447" stroke="#233447" stroke-width="0.25" stroke-linecap="round" stroke-linejoin="round"/>
<path d="M23.5783 64.7385L25.0638 52.53L15.6165 52.7969L23.5783 64.7385Z" fill="#CC6228" stroke="#CC6228" stroke-width="0.25" stroke-linecap="round" stroke-linejoin="round"/>
<path d="M53.8215 52.53L55.2773 64.7385L63.2689 52.7969L53.8215 52.53Z" fill="#CC6228" stroke="#CC6228" stroke-width="0.25" stroke-linecap="round" stroke-linejoin="round"/>
<path d="M60.9809 39.077L44.0471 39.8474L45.6216 48.5298L48.1172 43.2847L54.148 46.0406L60.9809 39.077Z" fill="#CC6228" stroke="#CC6228" stroke-width="0.25" stroke-linecap="round" stroke-linejoin="round"/>
<path d="M24.7665 46.0406L30.7676 43.2847L33.2632 48.5298L34.8377 39.8474L17.9038 39.077L24.7665 46.0406Z" fill="#CC6228" stroke="#CC6228" stroke-width="0.25" stroke-linecap="round" stroke-linejoin="round"/>
<path d="M17.9045 39.077L25.0049 52.9153L24.7671 46.0406L17.9045 39.077Z" fill="#E27525" stroke="#E27525" stroke-width="0.25" stroke-linecap="round" stroke-linejoin="round"/>
<path d="M54.1484 46.0406L53.8811 52.9153L60.9815 39.077L54.1484 46.0406Z" fill="#E27525" stroke="#E27525" stroke-width="0.25" stroke-linecap="round" stroke-linejoin="round"/>
<path d="M34.8386 39.8475L33.2639 48.5299L35.2544 58.7825L35.7001 45.2703L34.8386 39.8475Z" fill="#E27525" stroke="#E27525" stroke-width="0.25" stroke-linecap="round" stroke-linejoin="round"/>
<path d="M44.0478 39.8475L43.2158 45.2408L43.6318 58.7825L45.6222 48.5299L44.0478 39.8475Z" fill="#E27525" stroke="#E27525" stroke-width="0.25" stroke-linecap="round" stroke-linejoin="round"/>
<path d="M45.622 48.5302L43.6316 58.7827L45.0577 59.7903L53.8812 52.9156L54.1485 46.041L45.622 48.5302Z" fill="#F5841F" stroke="#F5841F" stroke-width="0.25" stroke-linecap="round" stroke-linejoin="round"/>
<path d="M24.7666 46.041L25.0044 52.9156L33.8277 59.7903L35.2538 58.7827L33.2633 48.5302L24.7666 46.041Z" fill="#F5841F" stroke="#F5841F" stroke-width="0.25" stroke-linecap="round" stroke-linejoin="round"/>
<path d="M45.8006 69.2427L45.8896 66.4276L45.1173 65.7757H33.7687L33.026 66.4276L33.0854 69.2427L23.5786 64.7386L26.906 67.4647L33.6498 72.117H45.2063L51.9799 67.4647L55.2775 64.7386L45.8006 69.2427Z" fill="#C0AC9D" stroke="#C0AC9D" stroke-width="0.25" stroke-linecap="round" stroke-linejoin="round"/>
<path d="M45.0573 59.79L43.6312 58.7827H35.2534L33.8276 59.79L33.0254 66.4278L33.7682 65.7758H45.1168L45.8893 66.4278L45.0573 59.79Z" fill="#161616" stroke="#161616" stroke-width="0.25" stroke-linecap="round" stroke-linejoin="round"/>
<path d="M75.3602 24.676L77.8855 12.4084L74.0827 1L45.0576 22.4834L56.2279 31.9063L72.0031 36.4994L75.4791 32.4398L73.9641 31.3433L76.3703 29.1506L74.5284 27.7282L76.9349 25.891L75.3602 24.676Z" fill="#763E1A" stroke="#763E1A" stroke-width="0.25" stroke-linecap="round" stroke-linejoin="round"/>
<path d="M1 12.4084L3.55494 24.676L1.92097 25.891L4.35706 27.7282L2.51514 29.1506L4.92152 31.3433L3.40638 32.4398L6.8823 36.4994L22.6576 31.9063L33.8279 22.4834L4.8027 1L1 12.4084Z" fill="#763E1A" stroke="#763E1A" stroke-width="0.25" stroke-linecap="round" stroke-linejoin="round"/>
<path d="M72.0033 36.4991L56.2281 31.9062L60.9815 39.0773L53.8811 52.9153L63.269 52.7969H77.2914L72.0033 36.4991Z" fill="#F5841F" stroke="#F5841F" stroke-width="0.25" stroke-linecap="round" stroke-linejoin="round"/>
<path d="M22.6571 31.9062L6.88194 36.4991L1.62354 52.7969H15.6163L25.0041 52.9153L17.9038 39.0773L22.6571 31.9062Z" fill="#F5841F" stroke="#F5841F" stroke-width="0.25" stroke-linecap="round" stroke-linejoin="round"/>
<path d="M44.0473 39.8477L45.0574 22.4831L49.6324 10.1266H29.2524L33.8275 22.4831L34.8376 39.8477L35.2238 45.3L35.2535 58.7827H43.6313L43.6611 45.3L44.0473 39.8477Z" fill="#F5841F" stroke="#F5841F" stroke-width="0.25" stroke-linecap="round" stroke-linejoin="round"/>
</svg>
