<svg width="390" height="100" viewBox="0 0 390 100" fill="none" xmlns="http://www.w3.org/2000/svg">
<path d="M130.798 39.8286H120.167V33.5632H149.116V39.8286H138.485V66.7852H130.798V39.8286ZM156.399 44.6218C157.284 43.3876 158.471 42.454 159.958 41.821C161.476 41.189 163.216 40.872 165.178 40.872V47.7068C164.356 47.6432 163.802 47.6114 163.517 47.6114C161.397 47.6114 159.736 48.2126 158.534 49.415C157.332 50.5856 156.73 52.3574 156.73 54.7304V66.7852H149.327V41.2516H156.399V44.6218ZM192.641 41.2516V66.7852H185.617V63.7474C184.636 64.8544 183.465 65.709 182.105 66.3102C180.745 66.8796 179.273 67.1648 177.691 67.1648C174.338 67.1648 171.68 66.1994 169.719 64.2696C167.757 62.3398 166.776 59.4764 166.776 55.6794V41.2516H174.18V54.5878C174.18 58.7008 175.904 60.7578 179.352 60.7578C181.124 60.7578 182.548 60.1884 183.624 59.0486C184.7 57.878 185.237 56.1544 185.237 53.8758V41.2516H192.641ZM205.243 67.1648C203.122 67.1648 201.05 66.9114 199.026 66.4056C197.001 65.867 195.387 65.2032 194.184 64.4122L196.653 59.0968C197.792 59.8242 199.167 60.4254 200.781 60.8994C202.395 61.3426 203.977 61.5642 205.527 61.5642C208.659 61.5642 210.226 60.7896 210.226 59.2384C210.226 58.511 209.798 57.9888 208.945 57.6728C208.09 57.3568 206.777 57.087 205.005 56.8654C202.917 56.5494 201.193 56.1852 199.832 55.7748C198.472 55.3634 197.286 54.635 196.273 53.5916C195.292 52.5472 194.802 51.0606 194.802 49.1298C194.802 47.517 195.261 46.093 196.178 44.8588C197.127 43.5928 198.487 42.612 200.259 41.9164C202.063 41.2208 204.182 40.872 206.619 40.872C208.422 40.872 210.21 41.0782 211.981 41.4896C213.785 41.8692 215.273 42.4068 216.443 43.1024L213.975 48.3706C211.729 47.1056 209.277 46.4726 206.619 46.4726C205.037 46.4726 203.851 46.6942 203.06 47.1364C202.269 47.5796 201.873 48.149 201.873 48.8456C201.873 49.6366 202.301 50.1896 203.154 50.5066C204.009 50.8226 205.369 51.1232 207.235 51.4084C209.324 51.7562 211.032 52.1358 212.361 52.5472C213.691 52.9268 214.845 53.6388 215.826 54.6832C216.806 55.7266 217.297 57.1824 217.297 59.0486C217.297 60.6306 216.823 62.0392 215.874 63.2724C214.924 64.5066 213.531 65.472 211.697 66.1676C209.894 66.8324 207.742 67.1648 205.243 67.1648ZM235.486 65.551C234.758 66.0886 233.856 66.5 232.78 66.7852C231.737 67.0376 230.629 67.1648 229.458 67.1648C226.421 67.1648 224.064 66.3892 222.387 64.839C220.742 63.2888 219.919 61.0102 219.919 58.0052V47.517H215.98V41.821H219.919V35.6049H227.322V41.821H233.682V47.517H227.322V57.9098C227.322 58.986 227.592 59.8242 228.13 60.4254C228.699 60.9948 229.49 61.28 230.503 61.28C231.673 61.28 232.669 60.963 233.492 60.33L235.486 65.551ZM298.12 33.5632L287.252 66.7852H278.995L271.686 44.2894L264.14 66.7852H255.929L245.014 33.5632H252.987L260.486 56.9136L268.317 33.5632H275.435L283.029 57.1034L290.764 33.5632H298.12ZM307.441 40.872C311.396 40.872 314.434 41.821 316.553 43.72C318.673 45.5862 319.733 48.4178 319.733 52.2148V66.7852H312.803V63.6048C311.412 65.9778 308.818 67.1648 305.021 67.1648C303.059 67.1648 301.351 66.8324 299.895 66.1676C298.471 65.5038 297.379 64.5856 296.62 63.415C295.861 62.2444 295.481 60.9158 295.481 59.4282C295.481 57.0562 296.368 55.189 298.14 53.8286C299.942 52.4682 302.711 51.788 306.445 51.788H312.329C312.329 50.1742 311.839 48.94 310.858 48.0864C309.877 47.2 308.406 46.7568 306.445 46.7568C305.084 46.7568 303.739 46.9784 302.411 47.4216C301.113 47.833 300.006 48.4024 299.089 49.1298L296.43 43.957C297.823 42.9762 299.484 42.217 301.413 41.6794C303.375 41.1408 305.385 40.872 307.441 40.872ZM306.871 62.1808C308.137 62.1808 309.261 61.8966 310.242 61.3272C311.222 60.726 311.918 59.856 312.329 58.7172V56.1062H307.251C304.214 56.1062 302.695 57.1034 302.695 59.0968C302.695 60.0458 303.059 60.805 303.786 61.3744C304.546 61.912 305.575 62.1808 306.871 62.1808ZM323.586 31.5709H330.989V66.7852H323.586V31.5709ZM335.013 31.5709H342.417V66.7852H335.013V31.5709ZM371.451 54.1128C371.451 54.2082 371.404 54.873 371.309 56.1062H351.993C352.341 57.6882 353.164 58.9378 354.461 59.856C355.758 60.7732 357.371 61.2318 359.302 61.2318C360.631 61.2318 361.801 61.042 362.814 60.6624C363.857 60.251 364.823 59.619 365.708 58.7644L369.648 63.0354C367.243 65.788 363.731 67.1648 359.112 67.1648C356.232 67.1648 353.686 66.6108 351.471 65.5038C349.256 64.364 347.548 62.7984 346.345 60.805C345.143 58.8116 344.542 56.5494 344.542 54.0184C344.542 51.5192 345.128 49.2724 346.298 47.279C347.501 45.2548 349.13 43.6882 351.186 42.5812C353.275 41.4414 355.599 40.872 358.162 40.872C360.662 40.872 362.925 41.4106 364.949 42.4858C366.974 43.562 368.556 45.1122 369.695 47.1364C370.865 49.1298 371.451 51.4556 371.451 54.1128ZM358.21 46.4726C356.533 46.4726 355.125 46.9466 353.987 47.8966C352.847 48.8456 352.151 50.1424 351.898 51.788H364.475C364.221 50.1742 363.526 48.8928 362.386 47.9438C361.247 46.963 359.855 46.4726 358.21 46.4726ZM390 65.551C389.273 66.0886 388.371 66.5 387.296 66.7852C386.251 67.0376 385.144 67.1648 383.974 67.1648C380.936 67.1648 378.579 66.3892 376.902 64.839C375.256 63.2888 374.435 61.0102 374.435 58.0052V47.517H370.495V41.821H374.435V35.6049H381.838V41.821H388.197V47.517H381.838V57.9098C381.838 58.986 382.107 59.8242 382.644 60.4254C383.214 60.9948 384.005 61.28 385.017 61.28C386.188 61.28 387.185 60.963 388.008 60.33L390 65.551Z" fill="#3375BB"/>
<path d="M66.0465 1H33.8798C15.7208 1 1 15.7208 1 33.8798V66.0465C1 84.2055 15.7208 98.9263 33.8798 98.9263H66.0465C84.2056 98.9263 98.9263 84.2055 98.9263 66.0465V33.8798C98.9263 15.7208 84.2056 1 66.0465 1Z" fill="white" stroke="#DFE5EC"/>
<path d="M4.73999 50.6697C4.73999 25.5394 25.1119 5.16772 50.2418 5.16772C75.3722 5.16772 95.7442 25.5394 95.7442 50.6697C95.7442 75.8001 75.3722 96.1722 50.2418 96.1722C25.1119 96.1722 4.73999 75.8001 4.73999 50.6697Z" fill="white"/>
<path d="M50.2689 23.4752C59.451 31.1441 69.9812 30.6712 72.9893 30.6712C72.3317 74.2838 67.3169 65.6351 50.2689 77.8643C33.2211 65.6351 28.2384 74.2838 27.5803 30.6712C30.5574 30.6712 41.087 31.1441 50.2689 23.4752Z" stroke="#3375BB" stroke-width="6.06304" stroke-miterlimit="10" stroke-linecap="round" stroke-linejoin="round"/>
</svg>
